  0
SECTION
  2
HEADER
  9
$ACADVER
  1
AC1014
  9
$HANDSEED
  5
FFFF
  9
$MEASUREMENT
 70
     1
  0
ENDSEC
  0
SECTION
  2
TABLES
  0
TABLE
  2
VPORT
  5
8
330
0
100
AcDbSymbolTable
 70
     4
  0
VPORT
  5
2E
330
8
100
AcDbSymbolTableRecord
100
AcDbViewportTableRecord
  2
*ACTIVE
 70
     0
 10
0.0
 20
0.0
 11
1.0
 21
1.0
 12
210.0
 22
148.5
 13
0.0
 23
0.0
 14
10.0
 24
10.0
 15
10.0
 25
10.0
 16
0.0
 26
0.0
 36
1.0
 17
0.0
 27
0.0
 37
0.0
 40
341.0
 41
1.24
 42
50.0
 43
0.0
 44
0.0
 50
0.0
 51
0.0
 71
     0
 72
   100
 73
     1
 74
     3
 75
     0
 76
     0
 77
     0
 78
     0
  0
ENDTAB
  0
TABLE
  2
LTYPE
  5
5
330
0
100
AcDbSymbolTable
 70
     1
  0
LTYPE
  5
14
330
5
100
AcDbSymbolTableRecord
100
AcDbLinetypeTableRecord
  2
BYBLOCK
 70
     0
  3

 72
    65
 73
     0
 40
0.0
  0
LTYPE
  5
15
330
5
100
AcDbSymbolTableRecord
100
AcDbLinetypeTableRecord
  2
BYLAYER
 70
     0
  3

 72
    65
 73
     0
 40
0.0
  0
LTYPE
  5
16
330
5
100
AcDbSymbolTableRecord
100
AcDbLinetypeTableRecord
  2
CONTINUOUS
 70
     0
  3
Solid line
 72
    65
 73
     0
 40
0.0
  0
ENDTAB
  0
TABLE
  2
LAYER
  5
2
100
AcDbSymbolTable
 70
2
  0
LAYER
  5
50
100
AcDbSymbolTableRecord
100
AcDbLayerTableRecord
  2
0
 70
0
  6
CONTINUOUS
  0
LAYER
  5
51
100
AcDbSymbolTableRecord
100
AcDbLayerTableRecord
  2
Layer_1
 70
0
  6
CONTINUOUS
  0
ENDTAB
  0
TABLE
  2
STYLE
  5
3
330
0
100
AcDbSymbolTable
 70
     1
  0
STYLE
  5
11
330
3
100
AcDbSymbolTableRecord
100
AcDbTextStyleTableRecord
  2
STANDARD
 70
     0
 40
0.0
 41
1.0
 50
0.0
 71
     0
 42
2.5
  3
txt
  4

  0
ENDTAB
  0
TABLE
  2
VIEW
  5
6
330
0
100
AcDbSymbolTable
 70
     0
  0
ENDTAB
  0
TABLE
  2
UCS
  5
7
330
0
100
AcDbSymbolTable
 70
     0
  0
ENDTAB
  0
TABLE
  2
APPID
  5
9
330
0
100
AcDbSymbolTable
 70
     2
  0
APPID
  5
12
330
9
100
AcDbSymbolTableRecord
100
AcDbRegAppTableRecord
  2
ACAD
 70
     0
  0
ENDTAB
  0
TABLE
  2
DIMSTYLE
  5
A
330
0
100
AcDbSymbolTable
 70
     1
  0
DIMSTYLE
105
27
330
A
100
AcDbSymbolTableRecord
100
AcDbDimStyleTableRecord
  2
ISO-25
 70
     0
  3

  4

  5

  6

  7

 40
1.0
 41
2.5
 42
0.625
 43
3.75
 44
1.25
 45
0.0
 46
0.0
 47
0.0
 48
0.0
140
2.5
141
2.5
142
0.0
143
0.03937007874016
144
1.0
145
0.0
146
1.0
147
0.625
 71
     0
 72
     0
 73
     0
 74
     0
 75
     0
 76
     0
 77
     1
 78
     8
170
     0
171
     3
172
     1
173
     0
174
     0
175
     0
176
     0
177
     0
178
     0
270
     2
271
     2
272
     2
273
     2
274
     3
340
11
275
     0
280
     0
281
     0
282
     0
283
     0
284
     8
285
     0
286
     0
287
     3
288
     0
  0
ENDTAB
  0
TABLE
  2
BLOCK_RECORD
  5
1
330
0
100
AcDbSymbolTable
 70
     1
  0
BLOCK_RECORD
  5
1F
330
1
100
AcDbSymbolTableRecord
100
AcDbBlockTableRecord
  2
*MODEL_SPACE
  0
BLOCK_RECORD
  5
1B
330
1
100
AcDbSymbolTableRecord
100
AcDbBlockTableRecord
  2
*PAPER_SPACE
  0
ENDTAB
  0
ENDSEC
  0
SECTION
  2
BLOCKS
  0
BLOCK
  5
20
330
1F
100
AcDbEntity
  8
0
100
AcDbBlockBegin
  2
*MODEL_SPACE
 70
     0
 10
0.0
 20
0.0
 30
0.0
  3
*MODEL_SPACE
  1

  0
ENDBLK
  5
21
330
1F
100
AcDbEntity
  8
0
100
AcDbBlockEnd
  0
BLOCK
  5
1C
330
1B
100
AcDbEntity
 67
     1
  8
0
100
AcDbBlockBegin
  2
*PAPER_SPACE
  1

  0
ENDBLK
  5
1D
330
1B
100
AcDbEntity
 67
     1
  8
0
100
AcDbBlockEnd
  0
ENDSEC
  0
SECTION
  2
ENTITIES
  0
LWPOLYLINE
  5
100
100
AcDbEntity
  8
0
 62
1
100
AcDbPolyline
 90
5
 70
1
 10
13.227373
 20
-41.472327
 30
0.0
 10
48.878254
 20
-41.472327
 30
0.0
 10
48.878254
 20
-73.896189
 30
0.0
 10
13.227373
 20
-73.896189
 30
0.0
 10
13.227373
 20
-41.472327
 30
0.0
  0
LWPOLYLINE
  5
101
100
AcDbEntity
  8
0
 62
1
100
AcDbPolyline
 90
5
 70
1
 10
13.227373
 20
58.038512
 30
0.0
 10
48.878254
 20
58.038512
 30
0.0
 10
48.878254
 20
37.139721
 30
0.0
 10
13.227373
 20
37.139721
 30
0.0
 10
13.227373
 20
58.038512
 30
0.0
  0
LWPOLYLINE
  5
102
100
AcDbEntity
  8
0
 62
1
100
AcDbPolyline
 90
5
 70
1
 10
13.227373
 20
-13.250105
 30
0.0
 10
48.878254
 20
-13.250105
 30
0.0
 10
48.878254
 20
-42.446948
 30
0.0
 10
13.227373
 20
-42.446948
 30
0.0
 10
13.227373
 20
-13.250105
 30
0.0
  0
LWPOLYLINE
  5
103
100
AcDbEntity
  8
0
 62
1
100
AcDbPolyline
 90
5
 70
1
 10
13.227373
 20
14.972118
 30
0.0
 10
48.878254
 20
14.972118
 30
0.0
 10
48.878254
 20
-14.224725
 30
0.0
 10
13.227373
 20
-14.224725
 30
0.0
 10
13.227373
 20
14.972118
 30
0.0
  0
LWPOLYLINE
  5
104
100
AcDbEntity
  8
0
 62
1
100
AcDbPolyline
 90
5
 70
1
 10
13.227373
 20
43.758785
 30
0.0
 10
48.878254
 20
43.758785
 30
0.0
 10
48.878254
 20
14.561942
 30
0.0
 10
13.227373
 20
14.561942
 30
0.0
 10
13.227373
 20
43.758785
 30
0.0
  0
LWPOLYLINE
  5
105
100
AcDbEntity
  8
0
 62
7
100
AcDbPolyline
 90
6
 70
1
 10
42.389448
 20
53.153660
 30
0.0
 10
42.405675
 20
53.153660
 30
0.0
 10
42.405675
 20
53.171299
 30
0.0
 10
42.389448
 20
53.171299
 30
0.0
 10
42.389448
 20
53.153660
 30
0.0
 10
42.389448
 20
53.153660
 30
0.0
  0
LWPOLYLINE
  5
106
100
AcDbEntity
  8
0
 62
7
100
AcDbPolyline
 90
6
 70
1
 10
21.805003
 20
-69.289865
 30
0.0
 10
21.821230
 20
-69.289865
 30
0.0
 10
21.821230
 20
-69.272226
 30
0.0
 10
21.805003
 20
-69.272226
 30
0.0
 10
21.805003
 20
-69.289865
 30
0.0
 10
21.805003
 20
-69.289865
 30
0.0
  0
SPLINE
  5
107
100
AcDbEntity
  8
0
 62
3
100
AcDbSpline
 70
8
 71
3
 72
8
 73
4
 74
0
 40
0
 40
0
 40
0
 40
0
 40
1
 40
1
 40
1
 40
1
 10
20.314577
 20
35.848148
 30
0.0
 10
20.314577
 20
37.619121
 30
0.0
 10
21.495223
 20
38.799769
 30
0.0
 10
23.266187
 20
38.799769
 30
0.0
  0
SPLINE
  5
108
100
AcDbEntity
  8
0
 62
3
100
AcDbSpline
 70
8
 71
3
 72
8
 73
4
 74
0
 40
0
 40
0
 40
0
 40
0
 40
1
 40
1
 40
1
 40
1
 10
23.266187
 20
38.799769
 30
0.0
 10
25.037151
 20
38.799769
 30
0.0
 10
26.217794
 20
37.619121
 30
0.0
 10
26.217794
 20
35.848148
 30
0.0
  0
SPLINE
  5
109
100
AcDbEntity
  8
0
 62
3
100
AcDbSpline
 70
8
 71
3
 72
8
 73
4
 74
0
 40
0
 40
0
 40
0
 40
0
 40
1
 40
1
 40
1
 40
1
 10
26.217794
 20
35.848148
 30
0.0
 10
26.217794
 20
34.077175
 30
0.0
 10
25.037151
 20
32.896527
 30
0.0
 10
23.266187
 20
32.896527
 30
0.0
  0
SPLINE
  5
10a
100
AcDbEntity
  8
0
 62
3
100
AcDbSpline
 70
8
 71
3
 72
8
 73
4
 74
0
 40
0
 40
0
 40
0
 40
0
 40
1
 40
1
 40
1
 40
1
 10
23.266187
 20
32.896527
 30
0.0
 10
21.495223
 20
32.896527
 30
0.0
 10
20.314577
 20
34.077175
 30
0.0
 10
20.314577
 20
35.848148
 30
0.0
  0
LWPOLYLINE
  5
10b
100
AcDbEntity
  8
0
 62
7
100
AcDbPolyline
 90
5
 70
0
 10
47.402629
 20
-72.263373
 30
0.0
 10
47.402629
 20
56.148690
 30
0.0
 10
15.318839
 20
56.148690
 30
0.0
 10
15.318839
 20
-72.263370
 30
0.0
 10
47.402629
 20
-72.263370
 30
0.0
  0
LWPOLYLINE
  5
10c
100
AcDbEntity
  8
0
 62
3
100
AcDbPolyline
 90
2
 70
0
 10
22.085541
 20
35.848148
 30
0.0
 10
24.446830
 20
35.848148
 30
0.0
  0
LWPOLYLINE
  5
10d
100
AcDbEntity
  8
0
 62
3
100
AcDbPolyline
 90
2
 70
0
 10
23.266187
 20
34.667500
 30
0.0
 10
23.266187
 20
37.028797
 30
0.0
  0
SPLINE
  5
10e
100
AcDbEntity
  8
0
 62
3
100
AcDbSpline
 70
8
 71
3
 72
8
 73
4
 74
0
 40
0
 40
0
 40
0
 40
0
 40
1
 40
1
 40
1
 40
1
 10
20.314577
 20
21.770065
 30
0.0
 10
20.314577
 20
23.541038
 30
0.0
 10
21.495223
 20
24.721687
 30
0.0
 10
23.266187
 20
24.721687
 30
0.0
  0
SPLINE
  5
10f
100
AcDbEntity
  8
0
 62
3
100
AcDbSpline
 70
8
 71
3
 72
8
 73
4
 74
0
 40
0
 40
0
 40
0
 40
0
 40
1
 40
1
 40
1
 40
1
 10
23.266187
 20
24.721687
 30
0.0
 10
25.037151
 20
24.721687
 30
0.0
 10
26.217794
 20
23.541038
 30
0.0
 10
26.217794
 20
21.770065
 30
0.0
  0
SPLINE
  5
110
100
AcDbEntity
  8
0
 62
3
100
AcDbSpline
 70
8
 71
3
 72
8
 73
4
 74
0
 40
0
 40
0
 40
0
 40
0
 40
1
 40
1
 40
1
 40
1
 10
26.217794
 20
21.770065
 30
0.0
 10
26.217794
 20
19.999093
 30
0.0
 10
25.037151
 20
18.818444
 30
0.0
 10
23.266187
 20
18.818444
 30
0.0
  0
SPLINE
  5
111
100
AcDbEntity
  8
0
 62
3
100
AcDbSpline
 70
8
 71
3
 72
8
 73
4
 74
0
 40
0
 40
0
 40
0
 40
0
 40
1
 40
1
 40
1
 40
1
 10
23.266187
 20
18.818444
 30
0.0
 10
21.495223
 20
18.818444
 30
0.0
 10
20.314577
 20
19.999093
 30
0.0
 10
20.314577
 20
21.770065
 30
0.0
  0
LWPOLYLINE
  5
112
100
AcDbEntity
  8
0
 62
3
100
AcDbPolyline
 90
6
 70
1
 10
23.257826
 20
35.802638
 30
0.0
 10
23.274054
 20
35.802638
 30
0.0
 10
23.274054
 20
35.820277
 30
0.0
 10
23.257826
 20
35.820277
 30
0.0
 10
23.257826
 20
35.802638
 30
0.0
 10
23.257826
 20
35.802638
 30
0.0
  0
LWPOLYLINE
  5
113
100
AcDbEntity
  8
0
 62
3
100
AcDbPolyline
 90
2
 70
0
 10
22.085541
 20
21.770065
 30
0.0
 10
24.446830
 20
21.770065
 30
0.0
  0
LWPOLYLINE
  5
114
100
AcDbEntity
  8
0
 62
3
100
AcDbPolyline
 90
2
 70
0
 10
23.266187
 20
20.589417
 30
0.0
 10
23.266187
 20
22.950714
 30
0.0
  0
SPLINE
  5
115
100
AcDbEntity
  8
0
 62
3
100
AcDbSpline
 70
8
 71
3
 72
8
 73
4
 74
0
 40
0
 40
0
 40
0
 40
0
 40
1
 40
1
 40
1
 40
1
 10
20.323540
 20
7.730348
 30
0.0
 10
20.323540
 20
9.501321
 30
0.0
 10
21.504186
 20
10.681969
 30
0.0
 10
23.275150
 20
10.681969
 30
0.0
  0
SPLINE
  5
116
100
AcDbEntity
  8
0
 62
3
100
AcDbSpline
 70
8
 71
3
 72
8
 73
4
 74
0
 40
0
 40
0
 40
0
 40
0
 40
1
 40
1
 40
1
 40
1
 10
23.275150
 20
10.681969
 30
0.0
 10
25.046114
 20
10.681969
 30
0.0
 10
26.226757
 20
9.501321
 30
0.0
 10
26.226757
 20
7.730348
 30
0.0
  0
SPLINE
  5
117
100
AcDbEntity
  8
0
 62
3
100
AcDbSpline
 70
8
 71
3
 72
8
 73
4
 74
0
 40
0
 40
0
 40
0
 40
0
 40
1
 40
1
 40
1
 40
1
 10
26.226757
 20
7.730348
 30
0.0
 10
26.226757
 20
5.959375
 30
0.0
 10
25.046114
 20
4.778727
 30
0.0
 10
23.275150
 20
4.778727
 30
0.0
  0
SPLINE
  5
118
100
AcDbEntity
  8
0
 62
3
100
AcDbSpline
 70
8
 71
3
 72
8
 73
4
 74
0
 40
0
 40
0
 40
0
 40
0
 40
1
 40
1
 40
1
 40
1
 10
23.275150
 20
4.778727
 30
0.0
 10
21.504186
 20
4.778727
 30
0.0
 10
20.323540
 20
5.959375
 30
0.0
 10
20.323540
 20
7.730348
 30
0.0
  0
LWPOLYLINE
  5
119
100
AcDbEntity
  8
0
 62
3
100
AcDbPolyline
 90
6
 70
1
 10
23.257826
 20
21.724555
 30
0.0
 10
23.274054
 20
21.724555
 30
0.0
 10
23.274054
 20
21.742194
 30
0.0
 10
23.257826
 20
21.742194
 30
0.0
 10
23.257826
 20
21.724555
 30
0.0
 10
23.257826
 20
21.724555
 30
0.0
  0
LWPOLYLINE
  5
11a
100
AcDbEntity
  8
0
 62
3
100
AcDbPolyline
 90
2
 70
0
 10
22.094505
 20
7.730348
 30
0.0
 10
24.455793
 20
7.730348
 30
0.0
  0
LWPOLYLINE
  5
11b
100
AcDbEntity
  8
0
 62
3
100
AcDbPolyline
 90
2
 70
0
 10
23.275150
 20
6.549700
 30
0.0
 10
23.275150
 20
8.910997
 30
0.0
  0
SPLINE
  5
11c
100
AcDbEntity
  8
0
 62
3
100
AcDbSpline
 70
8
 71
3
 72
8
 73
4
 74
0
 40
0
 40
0
 40
0
 40
0
 40
1
 40
1
 40
1
 40
1
 10
20.314577
 20
-6.188852
 30
0.0
 10
20.314577
 20
-4.417879
 30
0.0
 10
21.495223
 20
-3.237231
 30
0.0
 10
23.266187
 20
-3.237231
 30
0.0
  0
SPLINE
  5
11d
100
AcDbEntity
  8
0
 62
3
100
AcDbSpline
 70
8
 71
3
 72
8
 73
4
 74
0
 40
0
 40
0
 40
0
 40
0
 40
1
 40
1
 40
1
 40
1
 10
23.266187
 20
-3.237231
 30
0.0
 10
25.037151
 20
-3.237231
 30
0.0
 10
26.217794
 20
-4.417879
 30
0.0
 10
26.217794
 20
-6.188852
 30
0.0
  0
SPLINE
  5
11e
100
AcDbEntity
  8
0
 62
3
100
AcDbSpline
 70
8
 71
3
 72
8
 73
4
 74
0
 40
0
 40
0
 40
0
 40
0
 40
1
 40
1
 40
1
 40
1
 10
26.217794
 20
-6.188852
 30
0.0
 10
26.217794
 20
-7.959825
 30
0.0
 10
25.037151
 20
-9.140473
 30
0.0
 10
23.266187
 20
-9.140473
 30
0.0
  0
SPLINE
  5
11f
100
AcDbEntity
  8
0
 62
3
100
AcDbSpline
 70
8
 71
3
 72
8
 73
4
 74
0
 40
0
 40
0
 40
0
 40
0
 40
1
 40
1
 40
1
 40
1
 10
23.266187
 20
-9.140473
 30
0.0
 10
21.495223
 20
-9.140473
 30
0.0
 10
20.314577
 20
-7.959825
 30
0.0
 10
20.314577
 20
-6.188852
 30
0.0
  0
LWPOLYLINE
  5
120
100
AcDbEntity
  8
0
 62
3
100
AcDbPolyline
 90
6
 70
1
 10
23.266789
 20
7.684838
 30
0.0
 10
23.283017
 20
7.684838
 30
0.0
 10
23.283017
 20
7.702477
 30
0.0
 10
23.266789
 20
7.702477
 30
0.0
 10
23.266789
 20
7.684838
 30
0.0
 10
23.266789
 20
7.684838
 30
0.0
  0
LWPOLYLINE
  5
121
100
AcDbEntity
  8
0
 62
3
100
AcDbPolyline
 90
2
 70
0
 10
22.085541
 20
-6.188852
 30
0.0
 10
24.446830
 20
-6.188852
 30
0.0
  0
LWPOLYLINE
  5
122
100
AcDbEntity
  8
0
 62
3
100
AcDbPolyline
 90
2
 70
0
 10
23.266187
 20
-7.369500
 30
0.0
 10
23.266187
 20
-5.008203
 30
0.0
  0
SPLINE
  5
123
100
AcDbEntity
  8
0
 62
3
100
AcDbSpline
 70
8
 71
3
 72
8
 73
4
 74
0
 40
0
 40
0
 40
0
 40
0
 40
1
 40
1
 40
1
 40
1
 10
20.314577
 20
-20.209652
 30
0.0
 10
20.314577
 20
-18.438679
 30
0.0
 10
21.495223
 20
-17.258031
 30
0.0
 10
23.266187
 20
-17.258031
 30
0.0
  0
SPLINE
  5
124
100
AcDbEntity
  8
0
 62
3
100
AcDbSpline
 70
8
 71
3
 72
8
 73
4
 74
0
 40
0
 40
0
 40
0
 40
0
 40
1
 40
1
 40
1
 40
1
 10
23.266187
 20
-17.258031
 30
0.0
 10
25.037151
 20
-17.258031
 30
0.0
 10
26.217794
 20
-18.438679
 30
0.0
 10
26.217794
 20
-20.209652
 30
0.0
  0
SPLINE
  5
125
100
AcDbEntity
  8
0
 62
3
100
AcDbSpline
 70
8
 71
3
 72
8
 73
4
 74
0
 40
0
 40
0
 40
0
 40
0
 40
1
 40
1
 40
1
 40
1
 10
26.217794
 20
-20.209652
 30
0.0
 10
26.217794
 20
-21.980625
 30
0.0
 10
25.037151
 20
-23.161273
 30
0.0
 10
23.266187
 20
-23.161273
 30
0.0
  0
SPLINE
  5
126
100
AcDbEntity
  8
0
 62
3
100
AcDbSpline
 70
8
 71
3
 72
8
 73
4
 74
0
 40
0
 40
0
 40
0
 40
0
 40
1
 40
1
 40
1
 40
1
 10
23.266187
 20
-23.161273
 30
0.0
 10
21.495223
 20
-23.161273
 30
0.0
 10
20.314577
 20
-21.980625
 30
0.0
 10
20.314577
 20
-20.209652
 30
0.0
  0
LWPOLYLINE
  5
127
100
AcDbEntity
  8
0
 62
3
100
AcDbPolyline
 90
6
 70
1
 10
23.257826
 20
-6.234362
 30
0.0
 10
23.274054
 20
-6.234362
 30
0.0
 10
23.274054
 20
-6.216723
 30
0.0
 10
23.257826
 20
-6.216723
 30
0.0
 10
23.257826
 20
-6.234362
 30
0.0
 10
23.257826
 20
-6.234362
 30
0.0
  0
LWPOLYLINE
  5
128
100
AcDbEntity
  8
0
 62
3
100
AcDbPolyline
 90
2
 70
0
 10
22.085541
 20
-20.209652
 30
0.0
 10
24.446830
 20
-20.209652
 30
0.0
  0
LWPOLYLINE
  5
129
100
AcDbEntity
  8
0
 62
3
100
AcDbPolyline
 90
2
 70
0
 10
23.266187
 20
-21.390300
 30
0.0
 10
23.266187
 20
-19.029003
 30
0.0
  0
SPLINE
  5
12a
100
AcDbEntity
  8
0
 62
3
100
AcDbSpline
 70
8
 71
3
 72
8
 73
4
 74
0
 40
0
 40
0
 40
0
 40
0
 40
1
 40
1
 40
1
 40
1
 10
20.314577
 20
-34.103451
 30
0.0
 10
20.314577
 20
-32.332478
 30
0.0
 10
21.495223
 20
-31.151830
 30
0.0
 10
23.266187
 20
-31.151830
 30
0.0
  0
SPLINE
  5
12b
100
AcDbEntity
  8
0
 62
3
100
AcDbSpline
 70
8
 71
3
 72
8
 73
4
 74
0
 40
0
 40
0
 40
0
 40
0
 40
1
 40
1
 40
1
 40
1
 10
23.266187
 20
-31.151830
 30
0.0
 10
25.037151
 20
-31.151830
 30
0.0
 10
26.217794
 20
-32.332478
 30
0.0
 10
26.217794
 20
-34.103451
 30
0.0
  0
SPLINE
  5
12c
100
AcDbEntity
  8
0
 62
3
100
AcDbSpline
 70
8
 71
3
 72
8
 73
4
 74
0
 40
0
 40
0
 40
0
 40
0
 40
1
 40
1
 40
1
 40
1
 10
26.217794
 20
-34.103451
 30
0.0
 10
26.217794
 20
-35.874424
 30
0.0
 10
25.037151
 20
-37.055072
 30
0.0
 10
23.266187
 20
-37.055072
 30
0.0
  0
SPLINE
  5
12d
100
AcDbEntity
  8
0
 62
3
100
AcDbSpline
 70
8
 71
3
 72
8
 73
4
 74
0
 40
0
 40
0
 40
0
 40
0
 40
1
 40
1
 40
1
 40
1
 10
23.266187
 20
-37.055072
 30
0.0
 10
21.495223
 20
-37.055072
 30
0.0
 10
20.314577
 20
-35.874424
 30
0.0
 10
20.314577
 20
-34.103451
 30
0.0
  0
LWPOLYLINE
  5
12e
100
AcDbEntity
  8
0
 62
3
100
AcDbPolyline
 90
6
 70
1
 10
23.257826
 20
-20.255162
 30
0.0
 10
23.274054
 20
-20.255162
 30
0.0
 10
23.274054
 20
-20.237523
 30
0.0
 10
23.257826
 20
-20.237523
 30
0.0
 10
23.257826
 20
-20.255162
 30
0.0
 10
23.257826
 20
-20.255162
 30
0.0
  0
LWPOLYLINE
  5
12f
100
AcDbEntity
  8
0
 62
3
100
AcDbPolyline
 90
2
 70
0
 10
22.085541
 20
-34.103451
 30
0.0
 10
24.446830
 20
-34.103451
 30
0.0
  0
LWPOLYLINE
  5
130
100
AcDbEntity
  8
0
 62
3
100
AcDbPolyline
 90
2
 70
0
 10
23.266187
 20
-35.284099
 30
0.0
 10
23.266187
 20
-32.922803
 30
0.0
  0
SPLINE
  5
131
100
AcDbEntity
  8
0
 62
3
100
AcDbSpline
 70
8
 71
3
 72
8
 73
4
 74
0
 40
0
 40
0
 40
0
 40
0
 40
1
 40
1
 40
1
 40
1
 10
20.314577
 20
-50.638851
 30
0.0
 10
20.314577
 20
-48.867878
 30
0.0
 10
21.495223
 20
-47.687230
 30
0.0
 10
23.266187
 20
-47.687230
 30
0.0
  0
SPLINE
  5
132
100
AcDbEntity
  8
0
 62
3
100
AcDbSpline
 70
8
 71
3
 72
8
 73
4
 74
0
 40
0
 40
0
 40
0
 40
0
 40
1
 40
1
 40
1
 40
1
 10
23.266187
 20
-47.687230
 30
0.0
 10
25.037151
 20
-47.687230
 30
0.0
 10
26.217794
 20
-48.867878
 30
0.0
 10
26.217794
 20
-50.638851
 30
0.0
  0
SPLINE
  5
133
100
AcDbEntity
  8
0
 62
3
100
AcDbSpline
 70
8
 71
3
 72
8
 73
4
 74
0
 40
0
 40
0
 40
0
 40
0
 40
1
 40
1
 40
1
 40
1
 10
26.217794
 20
-50.638851
 30
0.0
 10
26.217794
 20
-52.409824
 30
0.0
 10
25.037151
 20
-53.590472
 30
0.0
 10
23.266187
 20
-53.590472
 30
0.0
  0
SPLINE
  5
134
100
AcDbEntity
  8
0
 62
3
100
AcDbSpline
 70
8
 71
3
 72
8
 73
4
 74
0
 40
0
 40
0
 40
0
 40
0
 40
1
 40
1
 40
1
 40
1
 10
23.266187
 20
-53.590472
 30
0.0
 10
21.495223
 20
-53.590472
 30
0.0
 10
20.314577
 20
-52.409824
 30
0.0
 10
20.314577
 20
-50.638851
 30
0.0
  0
LWPOLYLINE
  5
135
100
AcDbEntity
  8
0
 62
3
100
AcDbPolyline
 90
6
 70
1
 10
23.257826
 20
-34.148961
 30
0.0
 10
23.274054
 20
-34.148961
 30
0.0
 10
23.274054
 20
-34.131323
 30
0.0
 10
23.257826
 20
-34.131323
 30
0.0
 10
23.257826
 20
-34.148961
 30
0.0
 10
23.257826
 20
-34.148961
 30
0.0
  0
LWPOLYLINE
  5
136
100
AcDbEntity
  8
0
 62
3
100
AcDbPolyline
 90
2
 70
0
 10
22.085541
 20
-50.638851
 30
0.0
 10
24.446830
 20
-50.638851
 30
0.0
  0
LWPOLYLINE
  5
137
100
AcDbEntity
  8
0
 62
3
100
AcDbPolyline
 90
2
 70
0
 10
23.266187
 20
-51.819499
 30
0.0
 10
23.266187
 20
-49.458203
 30
0.0
  0
LWPOLYLINE
  5
138
100
AcDbEntity
  8
0
 62
3
100
AcDbPolyline
 90
6
 70
1
 10
23.257826
 20
-50.684361
 30
0.0
 10
23.274054
 20
-50.684361
 30
0.0
 10
23.274054
 20
-50.666723
 30
0.0
 10
23.257826
 20
-50.666723
 30
0.0
 10
23.257826
 20
-50.684361
 30
0.0
 10
23.257826
 20
-50.684361
 30
0.0
  0
ENDSEC
  0
SECTION
  2
OBJECTS
  0
DICTIONARY
  5
C
330
0
100
AcDbDictionary
  3
ACAD_GROUP
350
D
  3
ACAD_MLINESTYLE
350
17
  0
DICTIONARY
  5
D
330
C
100
AcDbDictionary
  0
DICTIONARY
  5
1A
330
C
100
AcDbDictionary
  0
DICTIONARY
  5
17
330
C
100
AcDbDictionary
  3
STANDARD
350
18
  0
DICTIONARY
  5
19
330
C
100
AcDbDictionary
  0
ENDSEC
  0
EOF
